# xmcd
#
# Track frame offsets:
# 150
# 16805
# 30680
# 51400
# 77113
# 91360
# 107105
# 122540
# 139098
# 152720
#
# Disc length: 2319 seconds
#
#
# Revision: 2
# Processed by: cddbd v1.4PL0 Copyright (c) Steve Scherf et al.
# Submitted via: FreeRIP 2.00 
#
DISCID=7a090d0a
DTITLE=Little Texas - Kick A Little
DYEAR=1994
DGENRE=Country
TTITLE0=Kick A Little
TTITLE1=I'd Hold On To Her
TTITLE2=Amy's Back In Austin
TTITLE3=Southern Grace
TTITLE4=She's Cool
TTITLE5=Your Days Are Numbered
TTITLE6=Inside
TTITLE7=A Night I'll Never Remember
TTITLE8=Hit Country Song
TTITLE9=Redneck Like Me
EXTD=
EXTT0=
EXTT1=
EXTT2=
EXTT3=
EXTT4=
EXTT5=
EXTT6=
EXTT7=
EXTT8=
EXTT9=
PLAYORDER=
